<svg version="1.1" id="Layer_1" xmlns="http://www.w3.org/2000/svg" xmlns:xlink="http://www.w3.org/1999/xlink" x="0px" y="0px"
	 width="100%" viewBox="0 0 300 300" enable-background="new 0 0 300 300" xml:space="preserve">
<path fill="#55C500" opacity="1.000000" stroke="none" 
	d="
M170.000000,301.000000 
	C155.979111,301.000000 141.958206,301.000000 127.345764,300.629639 
	C126.239006,299.869110 125.762238,299.207245 125.203033,299.128113 
	C106.989998,296.551727 90.219421,289.994354 74.408813,280.788544 
	C57.083073,270.700592 42.210533,257.637878 30.401751,241.568222 
	C17.259384,223.683792 7.533754,204.007355 3.831533,181.762802 
	C3.441022,179.416443 1.969823,177.249939 0.999998,175.000000 
	C1.000000,159.312439 1.000000,143.624878 1.370366,127.345764 
	C2.158406,125.906921 2.752678,125.101463 2.964882,124.205513 
	C4.269327,118.697952 5.149469,113.067192 6.791410,107.666100 
	C14.922722,80.918518 29.169430,58.105297 50.064369,39.282753 
	C66.691437,24.304787 85.516151,13.547151 106.805115,7.032844 
	C114.437439,4.697392 122.262764,2.992616 130.000000,0.999999 
	C144.354233,1.000000 158.708450,1.000000 173.671295,1.361813 
	C175.169434,2.129513 176.023727,2.661134 176.953934,2.921903 
	C186.592621,5.623932 196.436935,7.734229 205.854401,11.056800 
	C232.833069,20.575109 254.469681,37.783997 271.493408,60.348236 
	C284.871704,78.080574 294.486145,97.924057 298.162964,120.224716 
	C298.550507,122.575172 300.028107,124.745895 301.000000,127.000000 
	C301.000000,127.000000 301.000000,127.500000 300.671753,127.849342 
	C300.562347,129.132462 300.781158,130.066238 301.000000,131.000000 
	C301.000000,145.354233 301.000000,159.708450 300.629639,174.654236 
	C299.171234,179.593353 298.115143,183.949219 296.989014,188.286880 
	C293.931519,200.063629 289.705322,211.372101 283.829315,222.004288 
	C274.894348,218.557892 269.438446,218.192047 260.010956,219.870041 
	C258.349915,220.165695 256.086395,220.077896 254.829315,219.164688 
	C245.126648,212.116272 238.846954,205.039108 243.475754,192.582794 
	C246.148499,185.390274 247.366974,177.402039 247.771225,169.694901 
	C248.162460,162.236069 246.965790,154.638504 245.950226,147.172104 
	C243.286118,127.585983 235.478455,110.158607 223.218216,94.679520 
	C221.024734,91.910141 217.973633,89.201195 217.250397,86.024498 
	C216.023682,80.636421 216.256302,74.901382 216.028015,69.305954 
	C215.878708,65.646271 216.192627,61.963074 215.956909,58.312504 
	C215.467712,50.736240 210.890488,48.355881 204.493225,52.185108 
	C199.484238,55.183346 194.132187,57.742550 189.570175,61.311783 
	C185.799606,64.261810 182.755142,63.557652 178.911240,62.052422 
	C163.352173,55.959682 147.249557,55.541851 131.037292,58.512772 
	C117.563240,60.981918 105.902451,67.683006 94.499496,74.962189 
	C92.475288,76.254356 89.336090,76.721367 86.927635,76.308891 
	C80.881927,75.273514 74.984543,73.403992 68.980583,72.083038 
	C63.874626,70.959656 60.615265,74.591972 61.897961,79.728706 
	C62.917603,83.812019 63.679840,87.980576 65.003036,91.962868 
	C68.001892,100.988197 67.465935,108.978676 62.427811,117.706459 
	C56.071018,128.718628 53.742241,141.571228 53.231621,154.218140 
	C52.788898,165.183334 53.418179,176.383179 55.232830,187.201004 
	C57.648373,201.600983 63.625504,214.933578 73.514030,225.895630 
	C90.289635,244.492462 112.103630,252.717087 136.564270,253.806870 
	C147.362289,254.287949 158.273514,252.894623 169.097687,251.945709 
	C181.313354,250.874802 193.160629,247.931686 203.901901,241.907135 
	C211.074463,237.884247 217.715607,232.913864 223.483047,229.102097 
	C228.864258,234.439667 233.766571,240.463348 239.805130,244.961761 
	C245.717926,249.366486 252.788116,252.217545 259.766663,255.974686 
	C254.959473,260.094696 249.638489,264.894928 244.066971,269.384247 
	C228.576508,281.865814 211.133575,290.646606 191.990906,295.945251 
	C184.749069,297.949768 177.335373,299.333374 170.000000,301.000000 
z"/>
<path fill="#FFFFFF" opacity="1.000000" stroke="none" 
	d="
M170.468658,301.000000 
	C177.335373,299.333374 184.749069,297.949768 191.990906,295.945251 
	C211.133575,290.646606 228.576508,281.865814 244.066971,269.384247 
	C249.638489,264.894928 254.959473,260.094696 259.766663,255.974686 
	C252.788116,252.217545 245.717926,249.366486 239.805130,244.961761 
	C233.766571,240.463348 228.864258,234.439667 223.483047,229.102097 
	C217.715607,232.913864 211.074463,237.884247 203.901901,241.907135 
	C193.160629,247.931686 181.313354,250.874802 169.097687,251.945709 
	C158.273514,252.894623 147.362289,254.287949 136.564270,253.806870 
	C112.103630,252.717087 90.289635,244.492462 73.514030,225.895630 
	C63.625504,214.933578 57.648373,201.600983 55.232830,187.201004 
	C53.418179,176.383179 52.788898,165.183334 53.231621,154.218140 
	C53.742241,141.571228 56.071018,128.718628 62.427811,117.706459 
	C67.465935,108.978676 68.001892,100.988197 65.003036,91.962868 
	C63.679840,87.980576 62.917603,83.812019 61.897961,79.728706 
	C60.615265,74.591972 63.874626,70.959656 68.980583,72.083038 
	C74.984543,73.403992 80.881927,75.273514 86.927635,76.308891 
	C89.336090,76.721367 92.475288,76.254356 94.499496,74.962189 
	C105.902451,67.683006 117.563240,60.981918 131.037292,58.512772 
	C147.249557,55.541851 163.352173,55.959682 178.911240,62.052422 
	C182.755142,63.557652 185.799606,64.261810 189.570175,61.311783 
	C194.132187,57.742550 199.484238,55.183346 204.493225,52.185108 
	C210.890488,48.355881 215.467712,50.736240 215.956909,58.312504 
	C216.192627,61.963074 215.878708,65.646271 216.028015,69.305954 
	C216.256302,74.901382 216.023682,80.636421 217.250397,86.024498 
	C217.973633,89.201195 221.024734,91.910141 223.218216,94.679520 
	C235.478455,110.158607 243.286118,127.585983 245.950226,147.172104 
	C246.965790,154.638504 248.162460,162.236069 247.771225,169.694901 
	C247.366974,177.402039 246.148499,185.390274 243.475754,192.582794 
	C238.846954,205.039108 245.126648,212.116272 254.829315,219.164688 
	C256.086395,220.077896 258.349915,220.165695 260.010956,219.870041 
	C269.438446,218.192047 274.894348,218.557892 283.829315,222.004288 
	C289.705322,211.372101 293.931519,200.063629 296.989014,188.286880 
	C298.115143,183.949219 299.171234,179.593353 300.629639,175.122894 
	C301.000000,216.928391 301.000000,258.856781 301.000000,301.000000 
	C257.645996,301.000000 214.291656,301.000000 170.468658,301.000000 
M201.477936,166.014175 
	C212.905441,155.465408 214.084839,141.788361 212.763885,127.405243 
	C224.529892,129.574585 224.529892,129.574585 226.134338,126.172417 
	C223.230530,125.531921 220.484360,124.705360 217.679230,124.365570 
	C214.459824,123.975601 211.357635,123.787003 211.178375,119.902344 
	C214.594101,115.808136 221.408920,120.754829 224.173523,115.106606 
	C219.169907,110.879448 212.074692,119.524742 207.998383,111.346695 
	C213.360947,109.427979 218.539001,107.575287 223.717056,105.722595 
	C223.714096,105.289856 223.711136,104.857109 223.708160,104.424370 
	C222.377533,104.192612 220.976517,103.575134 219.729736,103.802704 
	C216.239105,104.439819 212.693344,105.115639 209.399292,106.376808 
	C206.941666,107.317734 206.068741,106.764793 204.789322,104.633041 
	C202.454681,100.743088 199.927505,96.867638 196.897110,93.513306 
	C181.371948,76.328560 162.044128,69.436325 139.129654,73.009537 
	C113.308662,77.035995 96.187126,91.861618 87.215927,116.056198 
	C85.657936,120.257996 83.667381,120.331993 80.361443,119.726273 
	C76.738632,119.062492 73.094612,118.514526 69.412491,117.908295 
	C68.221008,122.199181 70.696785,122.729332 73.501640,123.002037 
	C77.317062,123.373009 81.129585,123.773880 85.992661,124.268692 
	C81.266022,130.216797 75.184860,127.892395 70.024399,129.512482 
	C70.156448,130.610168 70.295670,131.767517 70.376671,132.440857 
	C75.184845,132.440857 79.511604,132.440857 85.179832,132.440857 
	C83.705650,134.445633 83.040543,136.193130 81.794548,136.867722 
	C79.261017,138.239395 76.273209,138.776428 73.752190,140.165009 
	C72.390259,140.915161 71.605118,142.712494 70.559761,144.037399 
	C70.993141,144.534042 71.426521,145.030685 71.859909,145.527313 
	C75.807930,143.837021 79.755951,142.146729 83.871910,140.384537 
	C83.842285,151.873108 86.975929,162.155975 94.964722,170.370422 
	C105.088982,180.780624 118.485313,183.330841 132.118484,183.810059 
	C141.426971,184.137253 150.819595,182.881897 160.137070,181.956238 
	C175.086823,180.471069 189.031174,176.100708 201.477936,166.014175 
z"/>
<path fill="#FFFFFF" opacity="1.000000" stroke="none" 
	d="
M129.531342,0.999999 
	C122.262764,2.992616 114.437439,4.697392 106.805115,7.032844 
	C85.516151,13.547151 66.691437,24.304787 50.064369,39.282753 
	C29.169430,58.105297 14.922722,80.918518 6.791410,107.666100 
	C5.149469,113.067192 4.269327,118.697952 2.964882,124.205513 
	C2.752678,125.101463 2.158406,125.906921 1.370366,126.877106 
	C1.000000,85.072166 1.000000,43.144329 1.000000,1.000000 
	C43.687317,1.000000 86.375000,1.000000 129.531342,0.999999 
z"/>
<path fill="#FFFFFF" opacity="1.000000" stroke="none" 
	d="
M301.000000,126.531342 
	C300.028107,124.745895 298.550507,122.575172 298.162964,120.224716 
	C294.486145,97.924057 284.871704,78.080574 271.493408,60.348236 
	C254.469681,37.783997 232.833069,20.575109 205.854401,11.056800 
	C196.436935,7.734229 186.592621,5.623932 176.953934,2.921903 
	C176.023727,2.661134 175.169434,2.129513 174.139954,1.361813 
	C216.260025,1.000000 258.520050,1.000000 301.000000,1.000000 
	C301.000000,42.687302 301.000000,84.374992 301.000000,126.531342 
z"/>
<path fill="#FFFFFF" opacity="1.000000" stroke="none" 
	d="
M0.999998,175.468658 
	C1.969823,177.249939 3.441022,179.416443 3.831533,181.762802 
	C7.533754,204.007355 17.259384,223.683792 30.401751,241.568222 
	C42.210533,257.637878 57.083073,270.700592 74.408813,280.788544 
	C90.219421,289.994354 106.989998,296.551727 125.203033,299.128113 
	C125.762238,299.207245 126.239006,299.869110 126.877106,300.629639 
	C85.073029,301.000000 43.146057,301.000000 1.000000,301.000000 
	C1.000000,259.312683 1.000000,217.625000 0.999998,175.468658 
z"/>
<path fill="#FFFFFF" opacity="1.000000" stroke="none" 
	d="
M301.000000,130.625000 
	C300.781158,130.066238 300.562347,129.132462 300.671753,128.099335 
	C301.000000,128.750000 301.000000,129.500000 301.000000,130.625000 
z"/>
<path fill="#55C500" opacity="1.000000" stroke="none" 
	d="
M201.225189,166.276794 
	C189.031174,176.100708 175.086823,180.471069 160.137070,181.956238 
	C150.819595,182.881897 141.426971,184.137253 132.118484,183.810059 
	C118.485313,183.330841 105.088982,180.780624 94.964722,170.370422 
	C86.975929,162.155975 83.842285,151.873108 83.871910,140.384537 
	C79.755951,142.146729 75.807930,143.837021 71.859909,145.527313 
	C71.426521,145.030685 70.993141,144.534042 70.559761,144.037399 
	C71.605118,142.712494 72.390259,140.915161 73.752190,140.165009 
	C76.273209,138.776428 79.261017,138.239395 81.794548,136.867722 
	C83.040543,136.193130 83.705650,134.445633 85.179832,132.440857 
	C79.511604,132.440857 75.184845,132.440857 70.376671,132.440857 
	C70.295670,131.767517 70.156448,130.610168 70.024399,129.512482 
	C75.184860,127.892395 81.266022,130.216797 85.992661,124.268692 
	C81.129585,123.773880 77.317062,123.373009 73.501640,123.002037 
	C70.696785,122.729332 68.221008,122.199181 69.412491,117.908295 
	C73.094612,118.514526 76.738632,119.062492 80.361443,119.726273 
	C83.667381,120.331993 85.657936,120.257996 87.215927,116.056198 
	C96.187126,91.861618 113.308662,77.035995 139.129654,73.009537 
	C162.044128,69.436325 181.371948,76.328560 196.897110,93.513306 
	C199.927505,96.867638 202.454681,100.743088 204.789322,104.633041 
	C206.068741,106.764793 206.941666,107.317734 209.399292,106.376808 
	C212.693344,105.115639 216.239105,104.439819 219.729736,103.802704 
	C220.976517,103.575134 222.377533,104.192612 223.708160,104.424370 
	C223.711136,104.857109 223.714096,105.289856 223.717056,105.722595 
	C218.539001,107.575287 213.360947,109.427979 207.998383,111.346695 
	C212.074692,119.524742 219.169907,110.879448 224.173523,115.106606 
	C221.408920,120.754829 214.594101,115.808136 211.178375,119.902344 
	C211.357635,123.787003 214.459824,123.975601 217.679230,124.365570 
	C220.484360,124.705360 223.230530,125.531921 226.134338,126.172417 
	C224.529892,129.574585 224.529892,129.574585 212.763885,127.405243 
	C214.084839,141.788361 212.905441,155.465408 201.225189,166.276794 
z"/>
</svg>