<svg version="1.1" id="Layer_1" xmlns="http://www.w3.org/2000/svg" xmlns:xlink="http://www.w3.org/1999/xlink" x="0px" y="0px"
	 width="100%" viewBox="0 0 535 535" enable-background="new 0 0 535 535" xml:space="preserve">
<path fill="#F38119" opacity="1.000000" stroke="none" 
	d="
M0.999996,252.000000 
	C1.000000,242.645767 1.000000,233.291550 1.286114,223.815094 
	C2.698585,223.175385 3.992425,222.863876 4.923778,222.106567 
	C10.448994,217.613861 15.862768,217.723053 21.257261,222.482269 
	C22.346849,223.443527 23.653234,224.159042 24.924345,225.370636 
	C27.007002,228.791672 29.024984,231.829926 31.167936,235.183319 
	C37.760006,240.915726 44.227104,246.332977 50.839302,252.014511 
	C53.030777,252.680008 54.399464,258.865112 57.551044,253.023499 
	C60.081791,254.404449 62.272633,255.719299 64.393616,257.138550 
	C68.773033,260.069031 72.963676,263.316132 77.508965,265.956055 
	C83.993828,269.722595 90.558113,273.443207 97.402756,276.473572 
	C104.118126,279.446686 111.184982,281.659424 118.183220,283.943481 
	C120.941948,284.843842 124.031265,284.726624 126.795677,285.615204 
	C131.677368,287.184326 136.293564,290.034943 141.258179,290.790924 
	C150.226227,292.156586 159.370941,292.351746 168.436691,293.098694 
	C169.666687,293.200043 170.866730,293.665070 171.822769,294.196289 
	C170.030960,295.683655 168.497040,296.936401 166.576462,298.504883 
	C176.727646,298.504883 186.401123,298.504883 196.634308,298.504883 
	C194.682053,297.097137 193.341125,296.130219 192.397339,295.092346 
	C201.042099,291.296265 209.766983,293.396545 218.272202,293.043915 
	C229.845871,292.564056 239.479233,296.490295 247.736664,305.133972 
	C254.625458,312.344971 262.624115,318.587769 270.618103,324.613403 
	C274.832153,327.789856 280.087463,329.584869 284.943085,332.378845 
	C286.982635,334.644409 288.625488,337.434021 290.971619,338.285095 
	C313.113831,346.317810 338.173645,338.697845 353.787933,319.672302 
	C356.512024,316.353027 359.474701,313.135986 362.768341,310.403473 
	C366.224792,307.535919 370.393219,307.167694 374.456543,309.455139 
	C378.642853,311.811829 380.024109,315.742615 379.070160,320.119781 
	C377.946320,325.276672 376.122223,330.280975 374.327209,335.564331 
	C364.521729,355.426575 349.836700,369.687286 328.695801,375.618439 
	C316.499573,379.040100 303.600494,379.924774 291.057037,382.170685 
	C288.886108,382.559387 286.911469,384.044250 284.390320,385.013733 
	C273.374298,383.697601 262.814148,382.390442 251.997574,381.051575 
	C251.997574,382.406067 251.997589,384.214935 251.997589,386.023773 
	C251.997620,415.457275 252.125839,444.891815 251.893677,474.323486 
	C251.844971,480.497772 252.621521,486.588745 250.319321,492.974548 
	C247.574509,500.588135 246.001923,508.529266 241.018005,515.238770 
	C235.384583,522.822693 229.442749,529.887268 220.046875,533.050476 
	C219.136734,533.356873 218.671677,534.985291 218.000000,536.000000 
	C197.979111,536.000000 177.958206,536.000000 157.800751,535.668579 
	C156.929382,534.568787 156.136459,533.085083 155.468552,533.139404 
	C145.841293,533.921936 139.362061,526.916321 132.834045,522.266602 
	C125.648849,517.148865 117.702354,511.912048 113.245010,503.188721 
	C109.551277,495.959869 104.295326,489.540436 99.921761,482.641754 
	C98.334770,480.138458 97.196030,477.329010 96.040718,474.580261 
	C94.902618,471.872498 93.805084,469.117493 93.048653,466.287292 
	C92.130608,462.852478 92.650085,458.476257 90.678825,455.987671 
	C85.400490,449.324127 85.995628,441.010345 85.599876,434.054016 
	C84.809776,420.166168 82.882248,405.954773 86.828400,391.972382 
	C88.445045,386.244110 88.134071,379.996552 89.072327,374.043915 
	C89.778442,369.564056 91.148491,365.192688 92.091003,360.745056 
	C92.831398,357.251129 93.975113,353.679321 93.773415,350.209900 
	C93.650650,348.098297 91.561882,344.598877 89.930725,344.332947 
	C82.227798,343.077209 78.012863,336.424591 71.515305,333.240234 
	C65.244965,330.167297 60.439621,324.167908 54.826283,319.658813 
	C52.747631,317.989044 50.688244,316.770294 48.987389,314.312744 
	C46.487583,310.700836 41.658031,308.765686 38.854401,305.284058 
	C35.011753,300.512177 30.484989,296.247528 27.041275,291.330475 
	C23.843271,286.764191 19.347363,283.370361 17.256456,277.483246 
	C14.530158,269.807098 9.221976,263.030457 4.866785,255.964157 
	C3.921737,254.430832 2.306533,253.310532 0.999996,252.000000 
z"/>
<path fill="#167DC5" opacity="1.000000" stroke="none" 
	d="
M374.601746,335.351410 
	C376.122223,330.280975 377.946320,325.276672 379.070160,320.119781 
	C380.024109,315.742615 378.642853,311.811829 374.456543,309.455139 
	C370.393219,307.167694 366.224792,307.535919 362.768341,310.403473 
	C359.474701,313.135986 356.512024,316.353027 353.787933,319.672302 
	C338.173645,338.697845 313.113831,346.317810 290.971619,338.285095 
	C288.625488,337.434021 286.982635,334.644409 284.995331,331.914307 
	C285.652435,325.384857 286.316864,319.693909 287.005585,314.005859 
	C288.006287,305.740784 294.396729,300.873871 300.178162,296.885498 
	C304.559814,293.862793 311.312408,294.276947 317.007141,293.580994 
	C316.225250,300.196625 320.712341,298.692566 324.155396,299.044067 
	C328.931793,299.531677 329.312225,296.718292 329.451935,293.104980 
	C334.972382,293.341339 340.030518,293.647217 344.837982,294.176849 
	C343.617249,295.613739 342.647156,296.826843 341.262329,298.558655 
	C350.371063,298.558655 358.753693,298.558655 367.479889,298.558655 
	C366.436096,297.085480 365.715332,296.068268 365.391174,295.021301 
	C368.780518,294.330750 371.743469,293.419525 374.771973,293.059448 
	C381.812836,292.222473 388.885559,291.653748 395.944458,290.966827 
	C396.432739,290.919312 396.929291,290.844055 397.395294,290.697052 
	C403.409210,288.799774 409.393250,286.802246 415.439880,285.016388 
	C418.203369,284.200195 421.281067,284.240143 423.880402,283.115540 
	C431.132782,279.977905 438.325500,276.656219 445.326904,272.996216 
	C454.306915,268.301849 463.088501,263.226501 471.931946,258.273132 
	C474.951935,256.581604 477.900574,254.762634 480.991272,253.010986 
	C481.100769,253.020096 481.278290,253.149582 481.242188,253.350189 
	C481.291504,253.796585 481.376892,254.042374 481.462280,254.288162 
	C481.632233,254.108597 481.802185,253.929047 482.299744,253.764496 
	C483.055756,253.700073 483.484131,253.620621 484.215515,253.601776 
	C485.029358,253.118011 485.540161,252.573624 486.265778,251.840240 
	C486.963776,251.358368 487.446930,251.065491 488.250458,250.749435 
	C489.473206,249.869797 490.375610,249.013321 491.531311,248.058929 
	C492.164612,247.583923 492.544556,247.206818 493.247742,246.783142 
	C494.777466,245.528152 495.984009,244.319717 497.473816,242.969971 
	C498.605347,241.919983 499.453644,241.011322 500.565247,240.046173 
	C501.198456,239.614517 501.568359,239.239349 502.268188,238.807266 
	C504.778748,236.538620 506.959320,234.326889 509.129883,232.065201 
	C509.119843,232.015244 509.019165,232.031128 509.333801,231.897675 
	C511.711700,228.845505 513.774963,225.926773 515.894775,222.668915 
	C516.014709,221.876709 516.078125,221.423630 516.548706,220.978577 
	C522.425049,218.560150 527.784302,216.615219 532.507996,222.554352 
	C533.031372,223.212433 534.805786,222.875488 536.000000,223.000000 
	C536.000000,232.354233 536.000000,241.708450 535.655640,251.289276 
	C527.092590,263.142487 523.036804,277.437561 512.287292,287.443756 
	C512.171875,287.551208 512.129395,287.733093 512.026489,287.858551 
	C509.715240,290.676270 507.410614,293.499512 505.082489,296.303223 
	C503.425293,298.298981 501.783356,300.310638 500.050812,302.240021 
	C495.336395,307.490021 490.876556,313.020691 485.734711,317.817169 
	C482.105133,321.202911 477.218506,323.213196 473.435455,326.467987 
	C465.225250,333.531616 456.871857,340.193085 446.716125,344.410553 
	C444.975616,345.133362 443.472290,348.120392 443.187897,350.239685 
	C442.808594,353.066010 443.451508,356.134583 444.145782,358.979401 
	C445.936493,366.317139 448.247192,373.534210 449.863617,380.906158 
	C450.987030,386.029724 451.966766,391.343628 451.860077,396.548920 
	C451.507294,413.765472 450.639008,430.971527 449.929596,448.180023 
	C449.905762,448.757843 449.428986,449.306183 449.221313,449.888916 
	C447.472260,454.796417 444.748260,459.608795 444.239136,464.644104 
	C443.551178,471.448334 439.666656,476.625793 437.135254,482.426514 
	C434.561890,488.323425 431.079742,493.954987 427.220337,499.123901 
	C423.037659,504.725647 418.315796,510.045044 413.178833,514.782410 
	C407.281189,520.221313 400.442505,524.476318 393.566956,528.734985 
	C389.848541,531.038025 386.432556,532.311523 382.411377,533.129089 
	C381.452637,533.324036 380.795746,535.003418 380.000000,536.000000 
	C359.979095,536.000000 339.958221,536.000000 319.722321,535.655884 
	C318.623169,534.517517 317.864716,533.304138 316.835052,532.995361 
	C308.450836,530.481445 303.546844,523.820740 297.820312,517.919495 
	C292.996704,512.948669 291.323364,506.741791 289.057312,500.713043 
	C287.425293,496.371216 285.285797,491.833527 285.218109,487.355286 
	C284.868958,464.258881 285.115356,441.153473 285.544250,418.011047 
	C299.659393,415.476074 312.206116,410.076843 323.955719,402.657562 
	C339.789276,392.659363 352.999420,379.774323 362.672821,363.921783 
	C367.986206,355.214233 370.710236,344.926605 374.601746,335.351410 
z"/>
<path fill="#000000" opacity="1.000000" stroke="none" 
	d="
M380.468689,536.000000 
	C380.795746,535.003418 381.452637,533.324036 382.411377,533.129089 
	C386.432556,532.311523 389.848541,531.038025 393.566956,528.734985 
	C400.442505,524.476318 407.281189,520.221313 413.178833,514.782410 
	C418.315796,510.045044 423.037659,504.725647 427.220337,499.123901 
	C431.079742,493.954987 434.561890,488.323425 437.135254,482.426514 
	C439.666656,476.625793 443.551178,471.448334 444.239136,464.644104 
	C444.748260,459.608795 447.472260,454.796417 449.221313,449.888916 
	C449.428986,449.306183 449.905762,448.757843 449.929596,448.180023 
	C450.639008,430.971527 451.507294,413.765472 451.860077,396.548920 
	C451.966766,391.343628 450.987030,386.029724 449.863617,380.906158 
	C448.247192,373.534210 445.936493,366.317139 444.145782,358.979401 
	C443.451508,356.134583 442.808594,353.066010 443.187897,350.239685 
	C443.472290,348.120392 444.975616,345.133362 446.716125,344.410553 
	C456.871857,340.193085 465.225250,333.531616 473.435455,326.467987 
	C477.218506,323.213196 482.105133,321.202911 485.734711,317.817169 
	C490.876556,313.020691 495.336395,307.490021 500.050812,302.240021 
	C501.783356,300.310638 503.425293,298.298981 505.082489,296.303223 
	C507.410614,293.499512 509.715240,290.676270 512.026489,287.858551 
	C512.129395,287.733093 512.171875,287.551208 512.287292,287.443756 
	C523.036804,277.437561 527.092590,263.142487 535.655640,251.757935 
	C536.000000,346.572479 536.000000,441.144928 536.000000,536.000000 
	C484.312775,536.000000 432.625061,536.000000 380.468689,536.000000 
M455.002655,419.374756 
	C455.002655,415.599640 455.002655,411.824554 455.002655,408.049438 
	C454.543427,408.071198 454.084167,408.092957 453.624939,408.114716 
	C453.624939,413.725037 453.624939,419.335358 453.624939,424.945679 
	C454.000824,424.952087 454.376678,424.958527 454.752563,424.964935 
	C454.835907,423.419586 454.919250,421.874268 455.002655,419.374756 
z"/>
<path fill="#000000" opacity="1.000000" stroke="none" 
	d="
M0.999996,252.468658 
	C2.306533,253.310532 3.921737,254.430832 4.866785,255.964157 
	C9.221976,263.030457 14.530158,269.807098 17.256456,277.483246 
	C19.347363,283.370361 23.843271,286.764191 27.041275,291.330475 
	C30.484989,296.247528 35.011753,300.512177 38.854401,305.284058 
	C41.658031,308.765686 46.487583,310.700836 48.987389,314.312744 
	C50.688244,316.770294 52.747631,317.989044 54.826283,319.658813 
	C60.439621,324.167908 65.244965,330.167297 71.515305,333.240234 
	C78.012863,336.424591 82.227798,343.077209 89.930725,344.332947 
	C91.561882,344.598877 93.650650,348.098297 93.773415,350.209900 
	C93.975113,353.679321 92.831398,357.251129 92.091003,360.745056 
	C91.148491,365.192688 89.778442,369.564056 89.072327,374.043915 
	C88.134071,379.996552 88.445045,386.244110 86.828400,391.972382 
	C82.882248,405.954773 84.809776,420.166168 85.599876,434.054016 
	C85.995628,441.010345 85.400490,449.324127 90.678825,455.987671 
	C92.650085,458.476257 92.130608,462.852478 93.048653,466.287292 
	C93.805084,469.117493 94.902618,471.872498 96.040718,474.580261 
	C97.196030,477.329010 98.334770,480.138458 99.921761,482.641754 
	C104.295326,489.540436 109.551277,495.959869 113.245010,503.188721 
	C117.702354,511.912048 125.648849,517.148865 132.834045,522.266602 
	C139.362061,526.916321 145.841293,533.921936 155.468552,533.139404 
	C156.136459,533.085083 156.929382,534.568787 157.332092,535.668579 
	C105.051743,536.000000 53.103485,536.000000 1.000000,536.000000 
	C1.000000,441.645844 1.000000,347.291565 0.999996,252.468658 
M81.997482,426.304535 
	C82.163002,428.172699 82.328522,430.040863 82.494041,431.908997 
	C82.794144,431.854675 83.094246,431.800323 83.394348,431.746002 
	C83.394348,423.242645 83.394348,414.739288 83.394348,406.235931 
	C82.928726,406.236542 82.463104,406.237183 81.997482,406.237793 
	C81.997482,412.609283 81.997482,418.980804 81.997482,426.304535 
z"/>
<path fill="#C2C1C1" opacity="1.000000" stroke="none" 
	d="
M501.938263,238.864197 
	C501.568359,239.239349 501.198456,239.614517 500.163055,240.024979 
	C498.004730,241.064423 496.511902,242.068558 494.860809,243.340271 
	C494.109894,244.681808 493.517212,245.755768 492.924530,246.829727 
	C492.544556,247.206818 492.164612,247.583923 491.186737,248.047607 
	C489.736664,248.443573 488.884491,248.752945 487.949768,248.680161 
	C487.245239,245.598389 486.084930,242.899704 486.080292,240.199020 
	C485.977020,180.041443 485.979523,119.883621 486.057892,59.725967 
	C486.062317,56.316887 487.283325,52.904892 487.249115,49.501179 
	C487.174713,42.092079 482.504456,37.399620 477.567902,32.337769 
	C472.228424,26.862780 466.147034,24.104780 459.073578,24.097353 
	C332.425812,23.964382 205.777878,24.002676 79.129990,23.994648 
	C72.801208,23.994247 67.689110,26.694443 62.855125,30.565523 
	C53.619312,37.961609 52.147446,48.410988 52.108978,58.943256 
	C51.886215,119.933403 52.020252,180.924805 51.944351,241.915665 
	C51.940266,245.194382 51.129471,248.472061 50.694206,251.750229 
	C44.227104,246.332977 37.760006,240.915726 31.155632,234.749680 
	C30.679058,219.552277 30.102005,205.104568 30.047026,190.654861 
	C29.907063,153.870071 29.838123,117.083313 30.084558,80.299644 
	C30.176374,66.595253 29.285275,52.963791 32.659653,39.200233 
	C36.318802,24.275131 50.393318,8.341690 65.562836,6.123957 
	C69.033974,5.616488 70.243675,4.205540 70.000000,1.000000 
	C202.020889,1.000000 334.041779,1.000000 466.535370,1.383273 
	C468.077209,3.069268 469.146362,4.371992 470.215515,5.674717 
	C470.810333,4.116477 471.405151,2.558236 472.000000,0.999997 
	C475.030609,1.000000 478.061188,1.000000 481.625854,1.316223 
	C482.776093,1.810627 483.392334,1.988809 484.123535,2.325603 
	C484.409821,2.684576 484.607971,2.853429 484.940735,3.261392 
	C485.364899,3.743718 485.681274,3.955426 486.063049,4.467927 
	C487.028381,6.619628 487.959564,7.653500 489.431335,4.933869 
	C494.307922,4.622119 493.963226,9.855579 496.997803,11.474356 
	C496.997559,12.187042 496.996948,12.594301 496.624268,12.983574 
	C493.522095,11.941298 490.792053,10.917008 488.061981,9.892718 
	C487.826813,10.313702 487.591644,10.734686 487.356476,11.155669 
	C488.128510,12.128073 488.732147,13.329912 489.697754,14.038528 
	C504.564972,24.949009 509.923187,40.469902 509.902466,57.951939 
	C509.833679,115.978600 509.346130,174.004776 509.019165,232.031128 
	C509.019165,232.031128 509.119843,232.015244 508.778503,232.081161 
	C506.270844,234.386124 504.104553,236.625168 501.938263,238.864197 
M478.660126,5.160756 
	C478.217926,5.777449 477.775726,6.394142 477.333527,7.010828 
	C479.563477,7.927763 481.793427,8.844699 484.023376,9.761635 
	C484.268127,9.166102 484.512909,8.570571 484.757690,7.975039 
	C482.952942,7.083626 481.148163,6.192213 478.660126,5.160756 
z"/>
<path fill="#000000" opacity="1.000000" stroke="none" 
	d="
M285.153931,418.051208 
	C285.115356,441.153473 284.868958,464.258881 285.218109,487.355286 
	C285.285797,491.833527 287.425293,496.371216 289.057312,500.713043 
	C291.323364,506.741791 292.996704,512.948669 297.820312,517.919495 
	C303.546844,523.820740 308.450836,530.481445 316.835052,532.995361 
	C317.864716,533.304138 318.623169,534.517517 319.253662,535.655884 
	C285.645782,536.000000 252.291550,536.000000 218.468658,536.000000 
	C218.671677,534.985291 219.136734,533.356873 220.046875,533.050476 
	C229.442749,529.887268 235.384583,522.822693 241.018005,515.238770 
	C246.001923,508.529266 247.574509,500.588135 250.319321,492.974548 
	C252.621521,486.588745 251.844971,480.497772 251.893677,474.323486 
	C252.125839,444.891815 251.997620,415.457275 251.997589,386.023773 
	C251.997589,384.214935 251.997574,382.406067 251.997574,381.051575 
	C262.814148,382.390442 273.374298,383.697601 284.441467,385.478088 
	C285.016968,396.651367 285.085449,407.351288 285.153931,418.051208 
z"/>
<path fill="#000000" opacity="1.000000" stroke="none" 
	d="
M24.859673,224.987854 
	C23.653234,224.159042 22.346849,223.443527 21.257261,222.482269 
	C15.862768,217.723053 10.448994,217.613861 4.923778,222.106567 
	C3.992425,222.863876 2.698585,223.175385 1.286114,223.346436 
	C1.000000,149.118301 1.000000,75.236610 1.000000,1.000000 
	C18.019249,1.000000 35.040966,1.000000 52.884033,1.282861 
	C52.104771,2.698929 50.551594,3.908474 48.888832,4.941661 
	C47.510269,5.798255 45.603542,6.104345 44.621700,7.247646 
	C40.547943,11.991327 36.564659,16.834366 32.870842,21.877285 
	C28.061525,28.443113 25.260592,36.165260 25.170321,44.069420 
	C24.778414,78.384903 25.023819,112.707451 25.000374,147.027405 
	C24.982620,173.014236 24.908636,199.001038 24.859673,224.987854 
z"/>
<path fill="#000000" opacity="1.000000" stroke="none" 
	d="
M496.997467,11.168925 
	C493.963226,9.855579 494.307922,4.622119 489.279297,4.620290 
	C487.820679,4.224181 486.909149,4.195662 485.997620,4.167139 
	C485.681274,3.955426 485.364899,3.743718 484.979736,2.998323 
	C484.610107,2.365422 484.309326,2.266207 484.008545,2.166992 
	C483.392334,1.988809 482.776093,1.810627 482.079956,1.316223 
	C499.971436,1.000000 517.942871,1.000000 536.000000,1.000000 
	C536.000000,74.687538 536.000000,148.375107 536.000000,222.531342 
	C534.805786,222.875488 533.031372,223.212433 532.507996,222.554352 
	C527.784302,216.615219 522.425049,218.560150 516.486938,220.514267 
	C516.012817,162.986038 516.007751,105.930153 516.001892,48.874264 
	C516.001770,47.377228 516.175903,45.844688 515.897522,44.400242 
	C515.782410,43.802860 514.687683,43.394245 514.019409,42.472946 
	C513.262146,37.850803 512.555969,33.649082 511.717377,29.473946 
	C511.658203,29.179399 510.622528,29.080982 510.015778,28.496250 
	C508.362061,25.384966 506.733490,22.668804 505.051819,19.588737 
	C503.335846,17.472898 501.673004,15.720963 499.983154,13.580240 
	C498.969940,12.517276 497.983704,11.843100 496.997467,11.168925 
z"/>
<path fill="#C3C2C2" opacity="1.000000" stroke="none" 
	d="
M24.924347,225.370636 
	C24.908636,199.001038 24.982620,173.014236 25.000374,147.027405 
	C25.023819,112.707451 24.778414,78.384903 25.170321,44.069420 
	C25.260592,36.165260 28.061525,28.443113 32.870842,21.877285 
	C36.564659,16.834366 40.547943,11.991327 44.621700,7.247646 
	C45.603542,6.104345 47.510269,5.798255 48.888832,4.941661 
	C50.551594,3.908474 52.104771,2.698929 53.352692,1.282861 
	C58.354931,1.000000 63.709858,1.000000 69.532394,1.000000 
	C70.243675,4.205540 69.033974,5.616488 65.562836,6.123957 
	C50.393318,8.341690 36.318802,24.275131 32.659653,39.200233 
	C29.285275,52.963791 30.176374,66.595253 30.084558,80.299644 
	C29.838123,117.083313 29.907063,153.870071 30.047026,190.654861 
	C30.102005,205.104568 30.679058,219.552277 31.030663,234.434540 
	C29.024984,231.829926 27.007002,228.791672 24.924347,225.370636 
z"/>
<path fill="#C3C2C2" opacity="1.000000" stroke="none" 
	d="
M471.583344,0.999997 
	C471.405151,2.558236 470.810333,4.116477 470.215515,5.674717 
	C469.146362,4.371992 468.077209,3.069268 467.004028,1.383273 
	C468.388885,1.000000 469.777802,1.000000 471.583344,0.999997 
z"/>
<path fill="#000000" opacity="1.000000" stroke="none" 
	d="
M480.881805,253.001862 
	C477.900574,254.762634 474.951935,256.581604 471.931946,258.273132 
	C463.088501,263.226501 454.306915,268.301849 445.326904,272.996216 
	C438.325500,276.656219 431.132782,279.977905 423.880402,283.115540 
	C421.281067,284.240143 418.203369,284.200195 415.439880,285.016388 
	C409.393250,286.802246 403.409210,288.799774 397.395294,290.697052 
	C396.929291,290.844055 396.432739,290.919312 395.944458,290.966827 
	C388.885559,291.653748 381.812836,292.222473 374.771973,293.059448 
	C371.743469,293.419525 368.780518,294.330750 365.029236,294.798096 
	C357.876678,294.387451 351.482635,294.170258 345.088623,293.953094 
	C340.030518,293.647217 334.972382,293.341339 328.996368,293.036865 
	C324.388947,293.079407 320.699432,293.120544 317.009918,293.161713 
	C311.312408,294.276947 304.559814,293.862793 300.178162,296.885498 
	C294.396729,300.873871 288.006287,305.740784 287.005585,314.005859 
	C286.316864,319.693909 285.652435,325.384857 284.924896,331.539062 
	C280.087463,329.584869 274.832153,327.789856 270.618103,324.613403 
	C262.624115,318.587769 254.625458,312.344971 247.736664,305.133972 
	C239.479233,296.490295 229.845871,292.564056 218.272202,293.043915 
	C209.766983,293.396545 201.042099,291.296265 192.018539,294.887817 
	C184.855286,294.490021 178.467957,294.225861 172.080643,293.961670 
	C170.866730,293.665070 169.666687,293.200043 168.436691,293.098694 
	C159.370941,292.351746 150.226227,292.156586 141.258179,290.790924 
	C136.293564,290.034943 131.677368,287.184326 126.795677,285.615204 
	C124.031265,284.726624 120.941948,284.843842 118.183220,283.943481 
	C111.184982,281.659424 104.118126,279.446686 97.402756,276.473572 
	C90.558113,273.443207 83.993828,269.722595 77.508965,265.956055 
	C72.963676,263.316132 68.773033,260.069031 64.393616,257.138550 
	C62.272633,255.719299 60.081791,254.404449 57.476425,252.558609 
	C57.023663,218.444046 56.542774,184.804749 57.144428,151.184799 
	C57.740726,117.864220 54.689121,84.487122 58.791912,51.200363 
	C59.421490,46.092461 61.698109,42.046444 64.788750,38.958878 
	C68.014000,35.736832 72.863380,34.140533 77.466187,31.906460 
	C204.457306,31.985723 330.984985,31.992458 457.512634,31.991447 
	C458.674164,31.991438 459.835663,31.887880 461.407043,31.907862 
	C466.555603,31.847464 469.238464,35.102119 472.835449,37.501411 
	C478.918640,41.559124 479.755310,47.132797 481.092834,53.457474 
	C481.011475,114.796066 481.002655,175.671097 481.008514,236.546127 
	C481.008942,241.032791 481.114594,245.519455 481.098206,250.375946 
	C480.977325,251.497803 480.929565,252.249817 480.881805,253.001862 
M421.608307,223.091339 
	C422.735474,219.587570 424.596252,216.133438 424.837311,212.569748 
	C425.341888,205.110794 425.993408,197.418625 424.718292,190.149612 
	C423.395050,182.606094 420.439545,175.175888 417.112885,168.214630 
	C414.694794,163.154694 410.587769,158.878830 407.074127,154.377991 
	C405.842468,152.800323 404.189972,151.528046 402.633484,150.231827 
	C399.184113,147.359238 395.885925,144.229736 392.132446,141.817612 
	C387.850494,139.065887 383.423859,136.565399 378.099640,135.774139 
	C373.578735,135.102280 369.200104,132.151047 364.802887,132.246750 
	C355.929138,132.439896 346.916473,130.133499 338.099518,133.853912 
	C332.538177,136.200592 326.242554,136.814255 320.695862,139.186371 
	C316.125000,141.141129 312.130981,144.479492 307.959473,147.319473 
	C305.711731,148.849731 303.634888,150.629929 301.466797,152.278763 
	C300.705872,152.857452 299.622284,153.208603 299.163605,153.956528 
	C295.785095,159.465530 292.207520,164.888916 289.328156,170.656525 
	C286.802582,175.715500 283.808411,181.064316 283.293945,186.500183 
	C282.018372,199.978775 280.283569,213.729172 286.972595,226.607498 
	C290.189178,232.800308 290.468353,240.720230 297.686646,244.539215 
	C298.036804,244.724472 298.287720,245.367050 298.331146,245.820969 
	C298.818390,250.910797 303.215607,252.507217 306.584869,254.912292 
	C309.477905,256.977386 313.267517,258.088715 315.566406,260.616821 
	C319.544098,264.991119 324.884430,266.628723 329.906250,268.122559 
	C336.279144,270.018341 343.164246,270.386169 349.867737,270.914917 
	C355.163116,271.332581 360.517883,271.010956 365.846130,270.987610 
	C366.999512,270.982544 368.239624,271.098267 369.290070,270.730591 
	C373.514404,269.251923 377.827545,267.907349 381.833099,265.950745 
	C387.977905,262.949219 394.536682,260.264893 399.735168,256.001556 
	C405.232574,251.493088 409.237244,245.197205 414.091705,239.862015 
	C418.286255,235.252060 419.345459,229.391876 421.608307,223.091339 
M215.650864,138.993393 
	C211.442505,137.332642 207.350159,134.739502 203.002487,134.198624 
	C192.886246,132.940109 182.647369,132.664886 172.456924,132.010712 
	C171.630219,131.957642 170.732086,131.863800 169.972198,132.111343 
	C165.155838,133.680328 160.319595,135.210205 155.587814,137.010300 
	C151.662003,138.503815 147.532608,139.850983 144.105865,142.168564 
	C139.882767,145.024765 136.447037,149.015778 132.397507,152.164627 
	C125.568680,157.474625 121.362564,164.581589 118.108231,172.321762 
	C116.922035,175.143036 117.421539,179.074188 115.606552,181.143433 
	C112.211189,185.014465 112.007584,189.217743 112.000031,193.743805 
	C111.990860,199.239868 111.688744,204.758957 112.096771,210.224533 
	C112.406929,214.379150 113.000877,218.726242 114.578789,222.526749 
	C117.585724,229.769135 119.857117,237.502563 125.265404,243.511490 
	C129.961990,248.729660 134.116486,255.044250 139.928070,258.468658 
	C145.103485,261.518250 149.908264,265.975006 156.711975,266.624084 
	C162.126923,267.140656 167.332718,270.583984 172.695053,270.757324 
	C182.365295,271.069916 192.028687,271.141418 201.837387,269.478821 
	C208.552399,268.340668 213.749954,264.726746 219.750778,262.683014 
	C225.113815,260.856476 229.428635,255.937469 234.185486,252.355789 
	C235.420654,251.425797 236.932220,250.614929 237.710983,249.370270 
	C240.850281,244.352905 243.554749,239.057632 246.795319,234.110992 
	C250.373581,228.648895 252.428146,222.534760 253.788086,216.383636 
	C255.019577,210.813568 255.078949,204.840576 254.727646,199.102020 
	C254.319275,192.431290 253.677475,185.577789 251.686920,179.260513 
	C249.952393,173.755768 245.814529,169.058151 243.434357,163.695099 
	C240.021683,156.005661 233.246658,151.512100 227.543304,146.066772 
	C224.433090,143.097290 220.178940,141.325958 215.650864,138.993393 
z"/>
<path fill="#C3C2C2" opacity="1.000000" stroke="none" 
	d="
M480.991272,253.010971 
	C480.929565,252.249817 480.977325,251.497803 481.486145,250.327667 
	C482.630157,247.921509 483.905518,245.934708 483.909668,243.945267 
	C484.018829,191.811279 483.996338,139.677032 483.996277,87.542816 
	C483.996246,77.882164 484.143616,68.217270 483.867218,58.564514 
	C483.813354,56.683441 482.110992,54.849567 481.168976,52.993919 
	C479.755310,47.132797 478.918640,41.559124 472.835449,37.501411 
	C469.238464,35.102119 466.555603,31.847464 461.426910,31.552917 
	C461.466553,29.616793 461.896149,28.110807 462.323822,26.611687 
	C333.120941,26.611687 204.272110,26.611687 74.922859,26.611687 
	C75.802116,28.819191 76.402420,30.326338 77.002724,31.833485 
	C72.863380,34.140533 68.014000,35.736832 64.788750,38.958878 
	C61.698109,42.046444 59.421490,46.092461 58.791912,51.200363 
	C54.689121,84.487122 57.740726,117.864220 57.144428,151.184799 
	C56.542774,184.804749 57.023663,218.444046 57.104893,252.539764 
	C54.399464,258.865112 53.030777,252.680008 50.839302,252.014511 
	C51.129471,248.472061 51.940266,245.194382 51.944351,241.915665 
	C52.020252,180.924805 51.886215,119.933403 52.108978,58.943256 
	C52.147446,48.410988 53.619312,37.961609 62.855125,30.565523 
	C67.689110,26.694443 72.801208,23.994247 79.129990,23.994648 
	C205.777878,24.002676 332.425812,23.964382 459.073578,24.097353 
	C466.147034,24.104780 472.228424,26.862780 477.567902,32.337769 
	C482.504456,37.399620 487.174713,42.092079 487.249115,49.501179 
	C487.283325,52.904892 486.062317,56.316887 486.057892,59.725967 
	C485.979523,119.883621 485.977020,180.041443 486.080292,240.199020 
	C486.084930,242.899704 487.245239,245.598389 487.928650,248.964630 
	C487.970093,250.011703 487.950073,250.392136 487.930084,250.772583 
	C487.446930,251.065491 486.963776,251.358368 485.985352,251.877106 
	C484.964233,252.582352 484.438354,253.061752 483.912476,253.541168 
	C483.484131,253.620621 483.055756,253.700073 482.227814,253.620575 
	C481.683777,253.289154 481.500458,253.185135 481.278290,253.149582 
	C481.278290,253.149582 481.100769,253.020096 480.991272,253.010971 
z"/>
<path fill="#166096" opacity="1.000000" stroke="none" 
	d="
M285.544250,418.011047 
	C285.085449,407.351288 285.016968,396.651367 284.897339,385.487122 
	C286.911469,384.044250 288.886108,382.559387 291.057037,382.170685 
	C303.600494,379.924774 316.499573,379.040100 328.695801,375.618439 
	C349.836700,369.687286 364.521729,355.426575 374.327209,335.564331 
	C370.710236,344.926605 367.986206,355.214233 362.672821,363.921783 
	C352.999420,379.774323 339.789276,392.659363 323.955719,402.657562 
	C312.206116,410.076843 299.659393,415.476074 285.544250,418.011047 
z"/>
<path fill="#FE8B1A" opacity="1.000000" stroke="none" 
	d="
M171.822769,294.196289 
	C178.467957,294.225861 184.855286,294.490021 191.621399,294.958740 
	C193.341125,296.130219 194.682053,297.097137 196.634308,298.504883 
	C186.401123,298.504883 176.727646,298.504883 166.576462,298.504883 
	C168.497040,296.936401 170.030960,295.683655 171.822769,294.196289 
z"/>
<path fill="#C3C2C2" opacity="1.000000" stroke="none" 
	d="
M510.040924,28.891365 
	C510.622528,29.080982 511.658203,29.179399 511.717377,29.473946 
	C512.555969,33.649082 513.262146,37.850803 514.007812,42.947868 
	C514.011047,101.672813 513.989319,159.496017 514.079712,217.319046 
	C514.082703,219.216293 515.226318,221.111771 515.838257,223.008057 
	C513.774963,225.926773 511.711700,228.845505 509.333801,231.897675 
	C509.346130,174.004776 509.833679,115.978600 509.902466,57.951939 
	C509.923187,40.469902 504.564972,24.949009 489.697754,14.038528 
	C488.732147,13.329912 488.128510,12.128073 487.356476,11.155669 
	C487.591644,10.734686 487.826813,10.313702 488.061981,9.892718 
	C490.792053,10.917008 493.522095,11.941298 496.680603,13.292978 
	C497.867157,15.475014 498.706329,16.655151 500.010162,13.969022 
	C501.673004,15.720963 503.335846,17.472898 504.843292,19.825418 
	C505.853546,23.522762 507.019257,26.619522 508.184937,29.716278 
	C508.803589,29.441301 509.422272,29.166330 510.040924,28.891365 
z"/>
<path fill="#BCBDBD" opacity="1.000000" stroke="none" 
	d="
M515.894775,222.668915 
	C515.226318,221.111771 514.082703,219.216293 514.079712,217.319046 
	C513.989319,159.496017 514.011047,101.672813 514.026855,43.374710 
	C514.687683,43.394245 515.782410,43.802860 515.897522,44.400242 
	C516.175903,45.844688 516.001770,47.377228 516.001892,48.874264 
	C516.007751,105.930153 516.012817,162.986038 516.079773,220.506256 
	C516.078125,221.423630 516.014709,221.876709 515.894775,222.668915 
z"/>
<path fill="#1887D6" opacity="1.000000" stroke="none" 
	d="
M344.837982,294.176849 
	C351.482635,294.170258 357.876678,294.387451 364.632629,294.827820 
	C365.715332,296.068268 366.436096,297.085480 367.479889,298.558655 
	C358.753693,298.558655 350.371063,298.558655 341.262329,298.558655 
	C342.647156,296.826843 343.617249,295.613739 344.837982,294.176849 
z"/>
<path fill="#1584D1" opacity="1.000000" stroke="none" 
	d="
M317.007141,293.580994 
	C320.699432,293.120544 324.388947,293.079407 328.534027,293.106384 
	C329.312225,296.718292 328.931793,299.531677 324.155396,299.044067 
	C320.712341,298.692566 316.225250,300.196625 317.007141,293.580994 
z"/>
<path fill="#A0B1C2" opacity="1.000000" stroke="none" 
	d="
M502.268188,238.807281 
	C504.104553,236.625168 506.270844,234.386124 508.788513,232.131119 
	C506.959320,234.326889 504.778748,236.538620 502.268188,238.807281 
z"/>
<path fill="#C3C2C2" opacity="1.000000" stroke="none" 
	d="
M495.019043,243.072693 
	C496.511902,242.068558 498.004730,241.064423 499.899750,240.081467 
	C499.453644,241.011322 498.605347,241.919983 497.112427,242.934052 
	C495.984863,243.050522 495.501953,243.061615 495.019043,243.072693 
z"/>
<path fill="#A0B1C2" opacity="1.000000" stroke="none" 
	d="
M494.860809,243.340271 
	C495.501953,243.061615 495.984863,243.050522 496.829163,243.075363 
	C495.984009,244.319717 494.777466,245.528152 493.247742,246.783142 
	C493.517212,245.755768 494.109894,244.681808 494.860809,243.340271 
z"/>
<path fill="#A0B1C2" opacity="1.000000" stroke="none" 
	d="
M488.250458,250.749420 
	C487.950073,250.392136 487.970093,250.011703 488.011200,249.346786 
	C488.884491,248.752945 489.736664,248.443573 490.933411,248.145523 
	C490.375610,249.013321 489.473206,249.869797 488.250458,250.749420 
z"/>
<path fill="#A0B1C2" opacity="1.000000" stroke="none" 
	d="
M484.215515,253.601776 
	C484.438354,253.061752 484.964233,252.582352 485.770538,252.066086 
	C485.540161,252.573624 485.029358,253.118011 484.215515,253.601776 
z"/>
<path fill="#A0B1C2" opacity="1.000000" stroke="none" 
	d="
M481.242188,253.350189 
	C481.500458,253.185135 481.683777,253.289154 481.900146,253.605560 
	C481.802185,253.929047 481.632233,254.108597 481.462280,254.288162 
	C481.376892,254.042374 481.291504,253.796585 481.242188,253.350189 
z"/>
<path fill="#0000FE" opacity="1.000000" stroke="none" 
	d="
M455.002625,419.851837 
	C454.919250,421.874268 454.835907,423.419586 454.752563,424.964935 
	C454.376678,424.958527 454.000824,424.952087 453.624939,424.945679 
	C453.624939,419.335358 453.624939,413.725037 453.624939,408.114716 
	C454.084167,408.092957 454.543427,408.071198 455.002655,408.049438 
	C455.002655,411.824554 455.002655,415.599640 455.002625,419.851837 
z"/>
<path fill="#FE0000" opacity="1.000000" stroke="none" 
	d="
M81.997482,425.828430 
	C81.997482,418.980804 81.997482,412.609283 81.997482,406.237793 
	C82.463104,406.237183 82.928726,406.236542 83.394348,406.235931 
	C83.394348,414.739288 83.394348,423.242645 83.394348,431.746002 
	C83.094246,431.800323 82.794144,431.854675 82.494041,431.908997 
	C82.328522,430.040863 82.163002,428.172699 81.997482,425.828430 
z"/>
<path fill="#C3C2C2" opacity="1.000000" stroke="none" 
	d="
M479.001770,5.230778 
	C481.148163,6.192213 482.952942,7.083626 484.757690,7.975039 
	C484.512909,8.570571 484.268127,9.166102 484.023376,9.761635 
	C481.793427,8.844699 479.563477,7.927763 477.333527,7.010831 
	C477.775726,6.394142 478.217926,5.777449 479.001770,5.230778 
z"/>
<path fill="#C0BFBF" opacity="1.000000" stroke="none" 
	d="
M499.983154,13.580235 
	C498.706329,16.655151 497.867157,15.475014 497.052673,13.310964 
	C496.996948,12.594301 496.997559,12.187042 496.997803,11.474354 
	C497.983704,11.843100 498.969940,12.517276 499.983154,13.580235 
z"/>
<path fill="#C0BFBF" opacity="1.000000" stroke="none" 
	d="
M486.063049,4.467931 
	C486.909149,4.195662 487.820679,4.224181 488.884216,4.566280 
	C487.959564,7.653500 487.028381,6.619628 486.063049,4.467931 
z"/>
<path fill="#C0BFBF" opacity="1.000000" stroke="none" 
	d="
M484.123535,2.325604 
	C484.309326,2.266207 484.610107,2.365422 484.871918,2.727705 
	C484.607971,2.853429 484.409821,2.684576 484.123535,2.325604 
z"/>
<path fill="#C0BFBF" opacity="1.000000" stroke="none" 
	d="
M510.015778,28.496244 
	C509.422272,29.166330 508.803589,29.441301 508.184937,29.716278 
	C507.019257,26.619522 505.853546,23.522762 504.896393,20.189322 
	C506.733490,22.668804 508.362061,25.384966 510.015778,28.496244 
z"/>
<path fill="#167DC5" opacity="1.000000" stroke="none" 
	d="
M421.365570,223.440826 
	C419.345459,229.391876 418.286255,235.252060 414.091705,239.862015 
	C409.237244,245.197205 405.232574,251.493088 399.735168,256.001556 
	C394.536682,260.264893 387.977905,262.949219 381.833099,265.950745 
	C377.827545,267.907349 373.514404,269.251923 369.290070,270.730591 
	C368.239624,271.098267 366.999512,270.982544 365.846130,270.987610 
	C360.517883,271.010956 355.163116,271.332581 349.867737,270.914917 
	C343.164246,270.386169 336.279144,270.018341 329.906250,268.122559 
	C324.884430,266.628723 319.544098,264.991119 315.566406,260.616821 
	C313.267517,258.088715 309.477905,256.977386 306.584869,254.912292 
	C303.215607,252.507217 298.818390,250.910797 298.331146,245.820969 
	C298.287720,245.367050 298.036804,244.724472 297.686646,244.539215 
	C290.468353,240.720230 290.189178,232.800308 286.972595,226.607498 
	C280.283569,213.729172 282.018372,199.978775 283.293945,186.500183 
	C283.808411,181.064316 286.802582,175.715500 289.328156,170.656525 
	C292.207520,164.888916 295.785095,159.465530 299.163605,153.956528 
	C299.622284,153.208603 300.705872,152.857452 301.466797,152.278763 
	C303.634888,150.629929 305.711731,148.849731 307.959473,147.319473 
	C312.130981,144.479492 316.125000,141.141129 320.695862,139.186371 
	C326.242554,136.814255 332.538177,136.200592 338.099518,133.853912 
	C346.916473,130.133499 355.929138,132.439896 364.802887,132.246750 
	C369.200104,132.151047 373.578735,135.102280 378.099640,135.774139 
	C383.423859,136.565399 387.850494,139.065887 392.132446,141.817612 
	C395.885925,144.229736 399.184113,147.359238 402.633484,150.231827 
	C404.189972,151.528046 405.842468,152.800323 407.074127,154.377991 
	C410.587769,158.878830 414.694794,163.154694 417.112885,168.214630 
	C420.439545,175.175888 423.395050,182.606094 424.718292,190.149612 
	C425.993408,197.418625 425.341888,205.110794 424.837311,212.569748 
	C424.596252,216.133438 422.735474,219.587570 421.365570,223.440826 
z"/>
<path fill="#F38119" opacity="1.000000" stroke="none" 
	d="
M216.045776,139.003830 
	C220.178940,141.325958 224.433090,143.097290 227.543304,146.066772 
	C233.246658,151.512100 240.021683,156.005661 243.434357,163.695099 
	C245.814529,169.058151 249.952393,173.755768 251.686920,179.260513 
	C253.677475,185.577789 254.319275,192.431290 254.727646,199.102020 
	C255.078949,204.840576 255.019577,210.813568 253.788086,216.383636 
	C252.428146,222.534760 250.373581,228.648895 246.795319,234.110992 
	C243.554749,239.057632 240.850281,244.352905 237.710983,249.370270 
	C236.932220,250.614929 235.420654,251.425797 234.185486,252.355789 
	C229.428635,255.937469 225.113815,260.856476 219.750778,262.683014 
	C213.749954,264.726746 208.552399,268.340668 201.837387,269.478821 
	C192.028687,271.141418 182.365295,271.069916 172.695053,270.757324 
	C167.332718,270.583984 162.126923,267.140656 156.711975,266.624084 
	C149.908264,265.975006 145.103485,261.518250 139.928070,258.468658 
	C134.116486,255.044250 129.961990,248.729660 125.265404,243.511490 
	C119.857117,237.502563 117.585724,229.769135 114.578789,222.526749 
	C113.000877,218.726242 112.406929,214.379150 112.096771,210.224533 
	C111.688744,204.758957 111.990860,199.239868 112.000031,193.743805 
	C112.007584,189.217743 112.211189,185.014465 115.606552,181.143433 
	C117.421539,179.074188 116.922035,175.143036 118.108231,172.321762 
	C121.362564,164.581589 125.568680,157.474625 132.397507,152.164627 
	C136.447037,149.015778 139.882767,145.024765 144.105865,142.168564 
	C147.532608,139.850983 151.662003,138.503815 155.587814,137.010300 
	C160.319595,135.210205 165.155838,133.680328 169.972198,132.111343 
	C170.732086,131.863800 171.630219,131.957642 172.456924,132.010712 
	C182.647369,132.664886 192.886246,132.940109 203.002487,134.198624 
	C207.350159,134.739502 211.442505,137.332642 216.045776,139.003830 
z"/>
<path fill="#C6C5C5" opacity="1.000000" stroke="none" 
	d="
M77.466187,31.906460 
	C76.402420,30.326338 75.802116,28.819191 74.922859,26.611687 
	C204.272110,26.611687 333.120941,26.611687 462.323822,26.611687 
	C461.896149,28.110807 461.466553,29.616793 461.017059,31.477724 
	C459.835663,31.887880 458.674164,31.991438 457.512634,31.991447 
	C330.984985,31.992458 204.457306,31.985723 77.466187,31.906460 
z"/>
<path fill="#BCBDBD" opacity="1.000000" stroke="none" 
	d="
M481.092834,53.457474 
	C482.110992,54.849567 483.813354,56.683441 483.867218,58.564514 
	C484.143616,68.217270 483.996246,77.882164 483.996277,87.542816 
	C483.996338,139.677032 484.018829,191.811279 483.909668,243.945267 
	C483.905518,245.934708 482.630157,247.921509 481.559265,249.957825 
	C481.114594,245.519455 481.008942,241.032791 481.008514,236.546127 
	C481.002655,175.671097 481.011475,114.796066 481.092834,53.457474 
z"/>
</svg>